<?xml version="1.0" standalone="no"?>
<!DOCTYPE svg PUBLIC "-//W3C//DTD SVG 20010904//EN"
 "http://www.w3.org/TR/2001/REC-SVG-20010904/DTD/svg10.dtd">
<svg version="1.0" xmlns="http://www.w3.org/2000/svg"
 width="72.000000pt" height="72.000000pt" viewBox="0 0 72.000000 72.000000"
 preserveAspectRatio="xMidYMid meet">
<metadata>
Created by potrace 1.14, written by Peter Selinger 2001-2017
</metadata>
<g transform="translate(0.000000,72.000000) scale(0.100000,-0.100000)"
fill="#000000" stroke="none">
<path d="M218 539 c-55 -18 -88 -48 -88 -80 0 -11 6 -22 14 -25 15 -6 10 -44
-5 -44 -13 0 -11 -38 2 -46 8 -4 8 -9 0 -17 -18 -18 -12 -47 12 -57 12 -5 16
-9 10 -9 -7 -1 -12 -4 -11 -9 1 -4 -4 -18 -11 -31 -11 -20 -11 -26 3 -39 13
-14 48 -16 220 -17 205 -1 205 -1 215 22 8 17 8 29 -1 43 -10 15 -9 24 2 45
10 19 11 31 3 43 -7 12 -7 22 0 33 12 19 2 53 -13 44 -6 -3 -7 1 -4 9 4 12 0
16 -17 17 -20 1 -19 2 6 8 40 8 45 42 12 75 -55 55 -236 73 -349 35z m227
-109 c-3 -5 -14 -10 -23 -9 -14 0 -13 2 3 9 27 11 27 11 20 0z"/>
</g>
</svg>
